<mxfile host="app.diagrams.net" agent="Mozilla/5.0 (Macintosh; Intel Mac OS X 10_15_7) AppleWebKit/537.36 (KHTML, like Gecko) Chrome/128.0.0.0 Safari/537.36" version="24.7.6">
  <diagram name="Page-1" id="9-9uTVZr_tjoDf-LNfpv">
    <mxGraphModel dx="1004" dy="673" grid="1" gridSize="10" guides="1" tooltips="1" connect="1" arrows="1" fold="1" page="1" pageScale="1" pageWidth="850" pageHeight="1100" math="0" shadow="0">
      <root>
        <mxCell id="0" />
        <mxCell id="1" parent="0" />
        <mxCell id="WFh73YhHo3ceh6fJG3it-52" value="" style="rounded=1;whiteSpace=wrap;html=1;fillColor=#f5f5f5;fontColor=#333333;strokeColor=#666666;" vertex="1" parent="1">
          <mxGeometry x="370" y="240" width="180" height="390" as="geometry" />
        </mxCell>
        <mxCell id="WFh73YhHo3ceh6fJG3it-1" value="Input Embedding" style="rounded=1;whiteSpace=wrap;html=1;fillColor=#f8cecc;strokeColor=#b85450;" vertex="1" parent="1">
          <mxGeometry x="200" y="640" width="120" height="40" as="geometry" />
        </mxCell>
        <mxCell id="WFh73YhHo3ceh6fJG3it-2" value="Output Embedding" style="rounded=1;whiteSpace=wrap;html=1;fillColor=#f8cecc;strokeColor=#b85450;" vertex="1" parent="1">
          <mxGeometry x="400" y="640" width="120" height="40" as="geometry" />
        </mxCell>
        <mxCell id="WFh73YhHo3ceh6fJG3it-3" value="" style="endArrow=classic;html=1;rounded=0;entryX=0.5;entryY=1;entryDx=0;entryDy=0;" edge="1" parent="1" target="WFh73YhHo3ceh6fJG3it-1">
          <mxGeometry width="50" height="50" relative="1" as="geometry">
            <mxPoint x="260" y="720" as="sourcePoint" />
            <mxPoint x="240" y="760" as="targetPoint" />
          </mxGeometry>
        </mxCell>
        <mxCell id="WFh73YhHo3ceh6fJG3it-4" value="" style="endArrow=classic;html=1;rounded=0;entryX=0.5;entryY=1;entryDx=0;entryDy=0;" edge="1" parent="1">
          <mxGeometry width="50" height="50" relative="1" as="geometry">
            <mxPoint x="459.52" y="720" as="sourcePoint" />
            <mxPoint x="459.52" y="680" as="targetPoint" />
          </mxGeometry>
        </mxCell>
        <mxCell id="WFh73YhHo3ceh6fJG3it-27" value="" style="edgeStyle=orthogonalEdgeStyle;rounded=0;orthogonalLoop=1;jettySize=auto;html=1;" edge="1" parent="1" source="WFh73YhHo3ceh6fJG3it-5" target="WFh73YhHo3ceh6fJG3it-2">
          <mxGeometry relative="1" as="geometry" />
        </mxCell>
        <mxCell id="WFh73YhHo3ceh6fJG3it-5" value="Outputs" style="text;html=1;align=center;verticalAlign=middle;resizable=0;points=[];autosize=1;strokeColor=none;fillColor=none;" vertex="1" parent="1">
          <mxGeometry x="425" y="720" width="70" height="30" as="geometry" />
        </mxCell>
        <mxCell id="WFh73YhHo3ceh6fJG3it-6" value="Inputs" style="text;html=1;align=center;verticalAlign=middle;resizable=0;points=[];autosize=1;strokeColor=none;fillColor=none;" vertex="1" parent="1">
          <mxGeometry x="230" y="720" width="60" height="30" as="geometry" />
        </mxCell>
        <mxCell id="WFh73YhHo3ceh6fJG3it-8" value="" style="rounded=1;whiteSpace=wrap;html=1;fillColor=#f5f5f5;fontColor=#333333;strokeColor=#666666;" vertex="1" parent="1">
          <mxGeometry x="170" y="350" width="180" height="280" as="geometry" />
        </mxCell>
        <mxCell id="WFh73YhHo3ceh6fJG3it-9" value="Add &amp;amp; Norm" style="rounded=1;whiteSpace=wrap;html=1;fillColor=#d5e8d4;strokeColor=#82b366;" vertex="1" parent="1">
          <mxGeometry x="200" y="380" width="120" height="20" as="geometry" />
        </mxCell>
        <mxCell id="WFh73YhHo3ceh6fJG3it-10" value="Feed&lt;br&gt;Forward" style="rounded=1;whiteSpace=wrap;html=1;fillColor=#dae8fc;strokeColor=#6c8ebf;" vertex="1" parent="1">
          <mxGeometry x="200" y="410" width="120" height="40" as="geometry" />
        </mxCell>
        <mxCell id="WFh73YhHo3ceh6fJG3it-11" value="Add &amp;amp; Norm" style="rounded=1;whiteSpace=wrap;html=1;fillColor=#d5e8d4;strokeColor=#82b366;" vertex="1" parent="1">
          <mxGeometry x="200" y="490" width="120" height="20" as="geometry" />
        </mxCell>
        <mxCell id="WFh73YhHo3ceh6fJG3it-12" value="Multi-Head&lt;br&gt;Attention" style="rounded=1;whiteSpace=wrap;html=1;fillColor=#ffe6cc;strokeColor=#d79b00;" vertex="1" parent="1">
          <mxGeometry x="200" y="520" width="120" height="40" as="geometry" />
        </mxCell>
        <mxCell id="WFh73YhHo3ceh6fJG3it-15" value="" style="endArrow=classic;html=1;rounded=0;exitX=0.5;exitY=0;exitDx=0;exitDy=0;" edge="1" parent="1" source="WFh73YhHo3ceh6fJG3it-1">
          <mxGeometry relative="1" as="geometry">
            <mxPoint x="370" y="550" as="sourcePoint" />
            <mxPoint x="260" y="560" as="targetPoint" />
          </mxGeometry>
        </mxCell>
        <mxCell id="WFh73YhHo3ceh6fJG3it-16" value="Positional&lt;br&gt;Encoding" style="edgeLabel;resizable=0;html=1;;align=center;verticalAlign=middle;" connectable="0" vertex="1" parent="WFh73YhHo3ceh6fJG3it-15">
          <mxGeometry relative="1" as="geometry" />
        </mxCell>
        <mxCell id="WFh73YhHo3ceh6fJG3it-17" value="" style="endArrow=classic;html=1;rounded=0;exitX=0.5;exitY=0;exitDx=0;exitDy=0;" edge="1" parent="1">
          <mxGeometry relative="1" as="geometry">
            <mxPoint x="459.52" y="640" as="sourcePoint" />
            <mxPoint x="459.52" y="560" as="targetPoint" />
          </mxGeometry>
        </mxCell>
        <mxCell id="WFh73YhHo3ceh6fJG3it-18" value="Positional&lt;br&gt;Encoding" style="edgeLabel;resizable=0;html=1;;align=center;verticalAlign=middle;" connectable="0" vertex="1" parent="WFh73YhHo3ceh6fJG3it-17">
          <mxGeometry relative="1" as="geometry" />
        </mxCell>
        <mxCell id="WFh73YhHo3ceh6fJG3it-19" value="Masked&lt;br&gt;Multi-Head&lt;br&gt;Attention" style="rounded=1;whiteSpace=wrap;html=1;fillColor=#ffe6cc;strokeColor=#d79b00;" vertex="1" parent="1">
          <mxGeometry x="400" y="500" width="120" height="60" as="geometry" />
        </mxCell>
        <mxCell id="WFh73YhHo3ceh6fJG3it-20" value="Add &amp;amp; Norm" style="rounded=1;whiteSpace=wrap;html=1;fillColor=#d5e8d4;strokeColor=#82b366;" vertex="1" parent="1">
          <mxGeometry x="400" y="470" width="120" height="20" as="geometry" />
        </mxCell>
        <mxCell id="WFh73YhHo3ceh6fJG3it-21" value="Multi-Head&lt;br&gt;Attention" style="rounded=1;whiteSpace=wrap;html=1;fillColor=#ffe6cc;strokeColor=#d79b00;" vertex="1" parent="1">
          <mxGeometry x="400" y="390" width="120" height="40" as="geometry" />
        </mxCell>
        <mxCell id="WFh73YhHo3ceh6fJG3it-22" value="Add &amp;amp; Norm" style="rounded=1;whiteSpace=wrap;html=1;fillColor=#d5e8d4;strokeColor=#82b366;" vertex="1" parent="1">
          <mxGeometry x="400" y="360" width="120" height="20" as="geometry" />
        </mxCell>
        <mxCell id="WFh73YhHo3ceh6fJG3it-23" value="Add &amp;amp; Norm" style="rounded=1;whiteSpace=wrap;html=1;fillColor=#d5e8d4;strokeColor=#82b366;" vertex="1" parent="1">
          <mxGeometry x="400" y="250" width="120" height="20" as="geometry" />
        </mxCell>
        <mxCell id="WFh73YhHo3ceh6fJG3it-24" value="Feed&lt;br&gt;Forward" style="rounded=1;whiteSpace=wrap;html=1;fillColor=#dae8fc;strokeColor=#6c8ebf;" vertex="1" parent="1">
          <mxGeometry x="400" y="280" width="120" height="40" as="geometry" />
        </mxCell>
        <mxCell id="WFh73YhHo3ceh6fJG3it-25" value="Linear" style="rounded=1;whiteSpace=wrap;html=1;fillColor=#e1d5e7;strokeColor=#9673a6;" vertex="1" parent="1">
          <mxGeometry x="400" y="190" width="120" height="20" as="geometry" />
        </mxCell>
        <mxCell id="WFh73YhHo3ceh6fJG3it-26" value="Softmax" style="rounded=1;whiteSpace=wrap;html=1;fillColor=#fff2cc;strokeColor=#d6b656;" vertex="1" parent="1">
          <mxGeometry x="400" y="160" width="120" height="20" as="geometry" />
        </mxCell>
        <mxCell id="WFh73YhHo3ceh6fJG3it-32" value="" style="edgeStyle=orthogonalEdgeStyle;rounded=0;orthogonalLoop=1;jettySize=auto;html=1;" edge="1" parent="1">
          <mxGeometry relative="1" as="geometry">
            <mxPoint x="260" y="580" as="sourcePoint" />
            <mxPoint x="300" y="560" as="targetPoint" />
            <Array as="points">
              <mxPoint x="300" y="580" />
              <mxPoint x="301" y="580" />
              <mxPoint x="300" y="581" />
            </Array>
          </mxGeometry>
        </mxCell>
        <mxCell id="WFh73YhHo3ceh6fJG3it-34" value="" style="edgeStyle=orthogonalEdgeStyle;rounded=0;orthogonalLoop=1;jettySize=auto;html=1;" edge="1" parent="1">
          <mxGeometry relative="1" as="geometry">
            <mxPoint x="260" y="580" as="sourcePoint" />
            <mxPoint x="220" y="560" as="targetPoint" />
            <Array as="points">
              <mxPoint x="220" y="580" />
              <mxPoint x="221" y="580" />
              <mxPoint x="220" y="581" />
            </Array>
          </mxGeometry>
        </mxCell>
        <mxCell id="WFh73YhHo3ceh6fJG3it-35" value="" style="edgeStyle=orthogonalEdgeStyle;rounded=0;orthogonalLoop=1;jettySize=auto;html=1;" edge="1" parent="1">
          <mxGeometry relative="1" as="geometry">
            <mxPoint x="460" y="580" as="sourcePoint" />
            <mxPoint x="500" y="560" as="targetPoint" />
            <Array as="points">
              <mxPoint x="500" y="580" />
              <mxPoint x="501" y="580" />
              <mxPoint x="500" y="581" />
            </Array>
          </mxGeometry>
        </mxCell>
        <mxCell id="WFh73YhHo3ceh6fJG3it-36" value="" style="edgeStyle=orthogonalEdgeStyle;rounded=0;orthogonalLoop=1;jettySize=auto;html=1;" edge="1" parent="1">
          <mxGeometry relative="1" as="geometry">
            <mxPoint x="460" y="580" as="sourcePoint" />
            <mxPoint x="420" y="560" as="targetPoint" />
            <Array as="points">
              <mxPoint x="420" y="580" />
              <mxPoint x="421" y="580" />
              <mxPoint x="420" y="581" />
            </Array>
          </mxGeometry>
        </mxCell>
        <mxCell id="WFh73YhHo3ceh6fJG3it-37" value="" style="edgeStyle=orthogonalEdgeStyle;rounded=0;orthogonalLoop=1;jettySize=auto;html=1;" edge="1" parent="1">
          <mxGeometry relative="1" as="geometry">
            <mxPoint x="259.84000000000003" y="490" as="sourcePoint" />
            <mxPoint x="259.84000000000003" y="450" as="targetPoint" />
            <Array as="points">
              <mxPoint x="259.84000000000003" y="470" />
              <mxPoint x="259.84000000000003" y="470" />
            </Array>
          </mxGeometry>
        </mxCell>
        <mxCell id="WFh73YhHo3ceh6fJG3it-38" value="" style="edgeStyle=orthogonalEdgeStyle;rounded=0;orthogonalLoop=1;jettySize=auto;html=1;entryX=0.75;entryY=1;entryDx=0;entryDy=0;" edge="1" parent="1" target="WFh73YhHo3ceh6fJG3it-21">
          <mxGeometry relative="1" as="geometry">
            <mxPoint x="459.84000000000003" y="470" as="sourcePoint" />
            <mxPoint x="459.84000000000003" y="430" as="targetPoint" />
            <Array as="points">
              <mxPoint x="460" y="460" />
              <mxPoint x="490" y="460" />
            </Array>
          </mxGeometry>
        </mxCell>
        <mxCell id="WFh73YhHo3ceh6fJG3it-39" value="" style="edgeStyle=orthogonalEdgeStyle;rounded=0;orthogonalLoop=1;jettySize=auto;html=1;" edge="1" parent="1">
          <mxGeometry relative="1" as="geometry">
            <mxPoint x="459.87" y="360" as="sourcePoint" />
            <mxPoint x="459.87" y="320" as="targetPoint" />
            <Array as="points">
              <mxPoint x="459.87" y="340" />
              <mxPoint x="459.87" y="340" />
            </Array>
          </mxGeometry>
        </mxCell>
        <mxCell id="WFh73YhHo3ceh6fJG3it-40" value="" style="edgeStyle=orthogonalEdgeStyle;rounded=0;orthogonalLoop=1;jettySize=auto;html=1;entryX=-0.016;entryY=0.555;entryDx=0;entryDy=0;entryPerimeter=0;" edge="1" parent="1" target="WFh73YhHo3ceh6fJG3it-11">
          <mxGeometry relative="1" as="geometry">
            <mxPoint x="260" y="620" as="sourcePoint" />
            <mxPoint x="180" y="500" as="targetPoint" />
            <Array as="points">
              <mxPoint x="180" y="620" />
              <mxPoint x="180" y="501" />
            </Array>
          </mxGeometry>
        </mxCell>
        <mxCell id="WFh73YhHo3ceh6fJG3it-41" value="" style="edgeStyle=orthogonalEdgeStyle;rounded=0;orthogonalLoop=1;jettySize=auto;html=1;entryX=1;entryY=0.5;entryDx=0;entryDy=0;" edge="1" parent="1" target="WFh73YhHo3ceh6fJG3it-20">
          <mxGeometry relative="1" as="geometry">
            <mxPoint x="460" y="620" as="sourcePoint" />
            <mxPoint x="558" y="500" as="targetPoint" />
            <Array as="points">
              <mxPoint x="540" y="620" />
              <mxPoint x="540" y="480" />
            </Array>
          </mxGeometry>
        </mxCell>
        <mxCell id="WFh73YhHo3ceh6fJG3it-42" value="" style="edgeStyle=orthogonalEdgeStyle;rounded=0;orthogonalLoop=1;jettySize=auto;html=1;entryX=0;entryY=0.5;entryDx=0;entryDy=0;" edge="1" parent="1" target="WFh73YhHo3ceh6fJG3it-9">
          <mxGeometry relative="1" as="geometry">
            <mxPoint x="260" y="469.49" as="sourcePoint" />
            <mxPoint x="198" y="350.49" as="targetPoint" />
            <Array as="points">
              <mxPoint x="180" y="470" />
              <mxPoint x="180" y="390" />
            </Array>
          </mxGeometry>
        </mxCell>
        <mxCell id="WFh73YhHo3ceh6fJG3it-43" value="" style="edgeStyle=orthogonalEdgeStyle;rounded=0;orthogonalLoop=1;jettySize=auto;html=1;" edge="1" parent="1">
          <mxGeometry relative="1" as="geometry">
            <mxPoint x="490" y="450" as="sourcePoint" />
            <mxPoint x="520" y="370" as="targetPoint" />
            <Array as="points">
              <mxPoint x="490" y="460" />
              <mxPoint x="540" y="460" />
              <mxPoint x="540" y="370" />
            </Array>
          </mxGeometry>
        </mxCell>
        <mxCell id="WFh73YhHo3ceh6fJG3it-44" value="" style="edgeStyle=orthogonalEdgeStyle;rounded=0;orthogonalLoop=1;jettySize=auto;html=1;" edge="1" parent="1">
          <mxGeometry relative="1" as="geometry">
            <mxPoint x="460" y="339.97" as="sourcePoint" />
            <mxPoint x="520" y="259.99" as="targetPoint" />
            <Array as="points">
              <mxPoint x="540" y="339.99" />
              <mxPoint x="540" y="259.99" />
              <mxPoint x="520" y="259.99" />
            </Array>
          </mxGeometry>
        </mxCell>
        <mxCell id="WFh73YhHo3ceh6fJG3it-46" value="" style="edgeStyle=orthogonalEdgeStyle;rounded=0;orthogonalLoop=1;jettySize=auto;html=1;" edge="1" parent="1">
          <mxGeometry relative="1" as="geometry">
            <mxPoint x="459.81" y="250" as="sourcePoint" />
            <mxPoint x="459.81" y="210" as="targetPoint" />
            <Array as="points">
              <mxPoint x="459.81" y="230" />
              <mxPoint x="459.81" y="230" />
            </Array>
          </mxGeometry>
        </mxCell>
        <mxCell id="WFh73YhHo3ceh6fJG3it-47" value="" style="edgeStyle=orthogonalEdgeStyle;rounded=0;orthogonalLoop=1;jettySize=auto;html=1;" edge="1" parent="1">
          <mxGeometry relative="1" as="geometry">
            <mxPoint x="459.81" y="160" as="sourcePoint" />
            <mxPoint x="459.81" y="120" as="targetPoint" />
            <Array as="points">
              <mxPoint x="459.81" y="140" />
              <mxPoint x="459.81" y="140" />
            </Array>
          </mxGeometry>
        </mxCell>
        <mxCell id="WFh73YhHo3ceh6fJG3it-48" value="Output&lt;br&gt;Probabilities" style="text;html=1;align=center;verticalAlign=middle;resizable=0;points=[];autosize=1;strokeColor=none;fillColor=none;" vertex="1" parent="1">
          <mxGeometry x="415" y="80" width="90" height="40" as="geometry" />
        </mxCell>
        <mxCell id="WFh73YhHo3ceh6fJG3it-49" value="" style="edgeStyle=orthogonalEdgeStyle;rounded=0;orthogonalLoop=1;jettySize=auto;html=1;" edge="1" parent="1">
          <mxGeometry relative="1" as="geometry">
            <mxPoint x="459.88" y="180" as="sourcePoint" />
            <mxPoint x="459.88" y="180" as="targetPoint" />
            <Array as="points">
              <mxPoint x="459.88" y="190" />
              <mxPoint x="459.88" y="190" />
            </Array>
          </mxGeometry>
        </mxCell>
        <mxCell id="WFh73YhHo3ceh6fJG3it-50" value="" style="edgeStyle=orthogonalEdgeStyle;rounded=0;orthogonalLoop=1;jettySize=auto;html=1;exitX=0.5;exitY=0;exitDx=0;exitDy=0;" edge="1" parent="1" source="WFh73YhHo3ceh6fJG3it-9">
          <mxGeometry relative="1" as="geometry">
            <mxPoint x="370" y="309.49" as="sourcePoint" />
            <mxPoint x="430" y="430" as="targetPoint" />
            <Array as="points">
              <mxPoint x="260" y="360" />
              <mxPoint x="360" y="360" />
              <mxPoint x="360" y="450" />
              <mxPoint x="430" y="450" />
              <mxPoint x="430" y="430" />
            </Array>
          </mxGeometry>
        </mxCell>
        <mxCell id="WFh73YhHo3ceh6fJG3it-51" value="" style="edgeStyle=orthogonalEdgeStyle;rounded=0;orthogonalLoop=1;jettySize=auto;html=1;exitX=0.5;exitY=0;exitDx=0;exitDy=0;" edge="1" parent="1">
          <mxGeometry relative="1" as="geometry">
            <mxPoint x="260" y="380" as="sourcePoint" />
            <mxPoint x="460" y="430" as="targetPoint" />
            <Array as="points">
              <mxPoint x="260" y="360" />
              <mxPoint x="360" y="360" />
              <mxPoint x="360" y="450" />
              <mxPoint x="460" y="450" />
            </Array>
          </mxGeometry>
        </mxCell>
      </root>
    </mxGraphModel>
  </diagram>
</mxfile>
